v 0 0 0
v 0 0 1
v 0 0 2
v 0 0 3
v 0 0 4
v 0 0 5
v 0 0 6
v 0 0 7
v 0 0 8
v 0 0 9
v 0 0 10
v 0 0 11
v 0 0 12
v 0 0 13
v 0 0 14
v 0 0 15
v 0 0 16
v 0 0 17
v 0 0 18
v 0 0 19
v 0 0 20
v 0 0 21
v 0 0 22
v 0 0 23
v 0 0 24
v 0 0 25
v 0 0 26
v 0 0 27
v 0 0 28
v 0 0 29
v 1 0 0
v 1 0 1
v 1 0 2
v 1 0 3
v 1 0 4
v 1 0 5
v 1 0 6
v 1 0 7
v 1 0 8
v 1 0 9
v 1 0 10
v 1 0 11
v 1 0 12
v 1 0 13
v 1 0 14
v 1 0 15
v 1 0 16
v 1 0 17
v 1 0 18
v 1 0 19
v 1 0 20
v 1 0 21
v 1 0 22
v 1 0 23
v 1 0 24
v 1 0 25
v 1 0 26
v 1 0 27
v 1 0 28
v 1 0 29
v 2 0 0
v 2 0 1
v 2 0 2
v 2 0 3
v 2 0 4
v 2 0 5
v 2 0 6
v 2 0 7
v 2 0 8
v 2 0 9
v 2 0 10
v 2 0 11
v 2 0 12
v 2 0 13
v 2 0 14
v 2 0 15
v 2 0 16
v 2 0 17
v 2 0 18
v 2 0 19
v 2 0 20
v 2 0 21
v 2 0 22
v 2 0 23
v 2 0 24
v 2 0 25
v 2 0 26
v 2 0 27
v 2 0 28
v 2 0 29
v 3 0 0
v 3 0 1
v 3 0 2
v 3 0 3
v 3 0 4
v 3 0 5
v 3 0 6
v 3 0 7
v 3 0 8
v 3 0 9
v 3 0 10
v 3 0 11
v 3 0 12
v 3 0 13
v 3 0 14
v 3 0 15
v 3 0 16
v 3 0 17
v 3 0 18
v 3 0 19
v 3 0 20
v 3 0 21
v 3 0 22
v 3 0 23
v 3 0 24
v 3 0 25
v 3 0 26
v 3 0 27
v 3 0 28
v 3 0 29
v 4 0 0
v 4 0 1
v 4 0 2
v 4 0 3
v 4 0 4
v 4 0 5
v 4 0 6
v 4 0 7
v 4 0 8
v 4 0 9
v 4 0 10
v 4 0 11
v 4 0 12
v 4 0 13
v 4 0 14
v 4 0 15
v 4 0 16
v 4 0 17
v 4 0 18
v 4 0 19
v 4 0 20
v 4 0 21
v 4 0 22
v 4 0 23
v 4 0 24
v 4 0 25
v 4 0 26
v 4 0 27
v 4 0 28
v 4 0 29
v 5 0 0
v 5 0 1
v 5 0 2
v 5 0 3
v 5 0 4
v 5 0 5
v 5 0 6
v 5 0 7
v 5 0 8
v 5 0 9
v 5 0 10
v 5 0 11
v 5 0 12
v 5 0 13
v 5 0 14
v 5 0 15
v 5 0 16
v 5 0 17
v 5 0 18
v 5 0 19
v 5 0 20
v 5 0 21
v 5 0 22
v 5 0 23
v 5 0 24
v 5 0 25
v 5 0 26
v 5 0 27
v 5 0 28
v 5 0 29
v 6 0 0
v 6 0 1
v 6 0 2
v 6 0 3
v 6 0 4
v 6 0 5
v 6 0 6
v 6 0 7
v 6 0 8
v 6 0 9
v 6 0 10
v 6 0 11
v 6 0 12
v 6 0 13
v 6 0 14
v 6 0 15
v 6 0 16
v 6 0 17
v 6 0 18
v 6 0 19
v 6 0 20
v 6 0 21
v 6 0 22
v 6 0 23
v 6 0 24
v 6 0 25
v 6 0 26
v 6 0 27
v 6 0 28
v 6 0 29
v 7 0 0
v 7 0 1
v 7 0 2
v 7 0 3
v 7 0 4
v 7 0 5
v 7 0 6
v 7 0 7
v 7 0 8
v 7 0 9
v 7 0 10
v 7 0 11
v 7 0 12
v 7 0 13
v 7 0 14
v 7 0 15
v 7 0 16
v 7 0 17
v 7 0 18
v 7 0 19
v 7 0 20
v 7 0 21
v 7 0 22
v 7 0 23
v 7 0 24
v 7 0 25
v 7 0 26
v 7 0 27
v 7 0 28
v 7 0 29
v 8 0 0
v 8 0 1
v 8 0 2
v 8 0 3
v 8 0 4
v 8 0 5
v 8 0 6
v 8 0 7
v 8 0 8
v 8 0 9
v 8 0 10
v 8 0 11
v 8 0 12
v 8 0 13
v 8 0 14
v 8 0 15
v 8 0 16
v 8 0 17
v 8 0 18
v 8 0 19
v 8 0 20
v 8 0 21
v 8 0 22
v 8 0 23
v 8 0 24
v 8 0 25
v 8 0 26
v 8 0 27
v 8 0 28
v 8 0 29
v 9 0 0
v 9 0 1
v 9 0 2
v 9 0 3
v 9 0 4
v 9 0 5
v 9 0 6
v 9 0 7
v 9 0 8
v 9 0 9
v 9 0 10
v 9 0 11
v 9 0 12
v 9 0 13
v 9 0 14
v 9 0 15
v 9 0 16
v 9 0 17
v 9 0 18
v 9 0 19
v 9 0 20
v 9 0 21
v 9 0 22
v 9 0 23
v 9 0 24
v 9 0 25
v 9 0 26
v 9 0 27
v 9 0 28
v 9 0 29
v 10 0 0
v 10 0 1
v 10 0 2
v 10 0 3
v 10 0 4
v 10 0 5
v 10 0 6
v 10 0 7
v 10 0 8
v 10 0 9
v 10 0 10
v 10 0 11
v 10 0 12
v 10 0 13
v 10 0 14
v 10 0 15
v 10 0 16
v 10 0 17
v 10 0 18
v 10 0 19
v 10 0 20
v 10 0 21
v 10 0 22
v 10 0 23
v 10 0 24
v 10 0 25
v 10 0 26
v 10 0 27
v 10 0 28
v 10 0 29
v 11 0 0
v 11 0 1
v 11 0 2
v 11 0 3
v 11 0 4
v 11 0 5
v 11 0 6
v 11 0 7
v 11 0 8
v 11 0 9
v 11 0 10
v 11 0 11
v 11 0 12
v 11 0 13
v 11 0 14
v 11 0 15
v 11 0 16
v 11 0 17
v 11 0 18
v 11 0 19
v 11 0 20
v 11 0 21
v 11 0 22
v 11 0 23
v 11 0 24
v 11 0 25
v 11 0 26
v 11 0 27
v 11 0 28
v 11 0 29
v 12 0 0
v 12 0 1
v 12 0 2
v 12 0 3
v 12 0 4
v 12 0 5
v 12 0 6
v 12 0 7
v 12 0 8
v 12 0 9
v 12 0 10
v 12 0 11
v 12 0 12
v 12 0 13
v 12 0 14
v 12 0 15
v 12 0 16
v 12 0 17
v 12 0 18
v 12 0 19
v 12 0 20
v 12 0 21
v 12 0 22
v 12 0 23
v 12 0 24
v 12 0 25
v 12 0 26
v 12 0 27
v 12 0 28
v 12 0 29
v 13 0 0
v 13 0 1
v 13 0 2
v 13 0 3
v 13 0 4
v 13 0 5
v 13 0 6
v 13 0 7
v 13 0 8
v 13 0 9
v 13 0 10
v 13 0 11
v 13 0 12
v 13 0 13
v 13 0 14
v 13 0 15
v 13 0 16
v 13 0 17
v 13 0 18
v 13 0 19
v 13 0 20
v 13 0 21
v 13 0 22
v 13 0 23
v 13 0 24
v 13 0 25
v 13 0 26
v 13 0 27
v 13 0 28
v 13 0 29
v 14 0 0
v 14 0 1
v 14 0 2
v 14 0 3
v 14 0 4
v 14 0 5
v 14 0 6
v 14 0 7
v 14 0 8
v 14 0 9
v 14 0 10
v 14 0 11
v 14 0 12
v 14 0 13
v 14 0 14
v 14 0 15
v 14 0 16
v 14 0 17
v 14 0 18
v 14 0 19
v 14 0 20
v 14 0 21
v 14 0 22
v 14 0 23
v 14 0 24
v 14 0 25
v 14 0 26
v 14 0 27
v 14 0 28
v 14 0 29
v 15 0 0
v 15 0 1
v 15 0 2
v 15 0 3
v 15 0 4
v 15 0 5
v 15 0 6
v 15 0 7
v 15 0 8
v 15 0 9
v 15 0 10
v 15 0 11
v 15 0 12
v 15 0 13
v 15 0 14
v 15 0 15
v 15 0 16
v 15 0 17
v 15 0 18
v 15 0 19
v 15 0 20
v 15 0 21
v 15 0 22
v 15 0 23
v 15 0 24
v 15 0 25
v 15 0 26
v 15 0 27
v 15 0 28
v 15 0 29
v 16 0 0
v 16 0 1
v 16 0 2
v 16 0 3
v 16 0 4
v 16 0 5
v 16 0 6
v 16 0 7
v 16 0 8
v 16 0 9
v 16 0 10
v 16 0 11
v 16 0 12
v 16 0 13
v 16 0 14
v 16 0 15
v 16 0 16
v 16 0 17
v 16 0 18
v 16 0 19
v 16 0 20
v 16 0 21
v 16 0 22
v 16 0 23
v 16 0 24
v 16 0 25
v 16 0 26
v 16 0 27
v 16 0 28
v 16 0 29
v 17 0 0
v 17 0 1
v 17 0 2
v 17 0 3
v 17 0 4
v 17 0 5
v 17 0 6
v 17 0 7
v 17 0 8
v 17 0 9
v 17 0 10
v 17 0 11
v 17 0 12
v 17 0 13
v 17 0 14
v 17 0 15
v 17 0 16
v 17 0 17
v 17 0 18
v 17 0 19
v 17 0 20
v 17 0 21
v 17 0 22
v 17 0 23
v 17 0 24
v 17 0 25
v 17 0 26
v 17 0 27
v 17 0 28
v 17 0 29
v 18 0 0
v 18 0 1
v 18 0 2
v 18 0 3
v 18 0 4
v 18 0 5
v 18 0 6
v 18 0 7
v 18 0 8
v 18 0 9
v 18 0 10
v 18 0 11
v 18 0 12
v 18 0 13
v 18 0 14
v 18 0 15
v 18 0 16
v 18 0 17
v 18 0 18
v 18 0 19
v 18 0 20
v 18 0 21
v 18 0 22
v 18 0 23
v 18 0 24
v 18 0 25
v 18 0 26
v 18 0 27
v 18 0 28
v 18 0 29
v 19 0 0
v 19 0 1
v 19 0 2
v 19 0 3
v 19 0 4
v 19 0 5
v 19 0 6
v 19 0 7
v 19 0 8
v 19 0 9
v 19 0 10
v 19 0 11
v 19 0 12
v 19 0 13
v 19 0 14
v 19 0 15
v 19 0 16
v 19 0 17
v 19 0 18
v 19 0 19
v 19 0 20
v 19 0 21
v 19 0 22
v 19 0 23
v 19 0 24
v 19 0 25
v 19 0 26
v 19 0 27
v 19 0 28
v 19 0 29
v 20 0 0
v 20 0 1
v 20 0 2
v 20 0 3
v 20 0 4
v 20 0 5
v 20 0 6
v 20 0 7
v 20 0 8
v 20 0 9
v 20 0 10
v 20 0 11
v 20 0 12
v 20 0 13
v 20 0 14
v 20 0 15
v 20 0 16
v 20 0 17
v 20 0 18
v 20 0 19
v 20 0 20
v 20 0 21
v 20 0 22
v 20 0 23
v 20 0 24
v 20 0 25
v 20 0 26
v 20 0 27
v 20 0 28
v 20 0 29
v 21 0 0
v 21 0 1
v 21 0 2
v 21 0 3
v 21 0 4
v 21 0 5
v 21 0 6
v 21 0 7
v 21 0 8
v 21 0 9
v 21 0 10
v 21 0 11
v 21 0 12
v 21 0 13
v 21 0 14
v 21 0 15
v 21 0 16
v 21 0 17
v 21 0 18
v 21 0 19
v 21 0 20
v 21 0 21
v 21 0 22
v 21 0 23
v 21 0 24
v 21 0 25
v 21 0 26
v 21 0 27
v 21 0 28
v 21 0 29
v 22 0 0
v 22 0 1
v 22 0 2
v 22 0 3
v 22 0 4
v 22 0 5
v 22 0 6
v 22 0 7
v 22 0 8
v 22 0 9
v 22 0 10
v 22 0 11
v 22 0 12
v 22 0 13
v 22 0 14
v 22 0 15
v 22 0 16
v 22 0 17
v 22 0 18
v 22 0 19
v 22 0 20
v 22 0 21
v 22 0 22
v 22 0 23
v 22 0 24
v 22 0 25
v 22 0 26
v 22 0 27
v 22 0 28
v 22 0 29
v 23 0 0
v 23 0 1
v 23 0 2
v 23 0 3
v 23 0 4
v 23 0 5
v 23 0 6
v 23 0 7
v 23 0 8
v 23 0 9
v 23 0 10
v 23 0 11
v 23 0 12
v 23 0 13
v 23 0 14
v 23 0 15
v 23 0 16
v 23 0 17
v 23 0 18
v 23 0 19
v 23 0 20
v 23 0 21
v 23 0 22
v 23 0 23
v 23 0 24
v 23 0 25
v 23 0 26
v 23 0 27
v 23 0 28
v 23 0 29
v 24 0 0
v 24 0 1
v 24 0 2
v 24 0 3
v 24 0 4
v 24 0 5
v 24 0 6
v 24 0 7
v 24 0 8
v 24 0 9
v 24 0 10
v 24 0 11
v 24 0 12
v 24 0 13
v 24 0 14
v 24 0 15
v 24 0 16
v 24 0 17
v 24 0 18
v 24 0 19
v 24 0 20
v 24 0 21
v 24 0 22
v 24 0 23
v 24 0 24
v 24 0 25
v 24 0 26
v 24 0 27
v 24 0 28
v 24 0 29
v 25 0 0
v 25 0 1
v 25 0 2
v 25 0 3
v 25 0 4
v 25 0 5
v 25 0 6
v 25 0 7
v 25 0 8
v 25 0 9
v 25 0 10
v 25 0 11
v 25 0 12
v 25 0 13
v 25 0 14
v 25 0 15
v 25 0 16
v 25 0 17
v 25 0 18
v 25 0 19
v 25 0 20
v 25 0 21
v 25 0 22
v 25 0 23
v 25 0 24
v 25 0 25
v 25 0 26
v 25 0 27
v 25 0 28
v 25 0 29
v 26 0 0
v 26 0 1
v 26 0 2
v 26 0 3
v 26 0 4
v 26 0 5
v 26 0 6
v 26 0 7
v 26 0 8
v 26 0 9
v 26 0 10
v 26 0 11
v 26 0 12
v 26 0 13
v 26 0 14
v 26 0 15
v 26 0 16
v 26 0 17
v 26 0 18
v 26 0 19
v 26 0 20
v 26 0 21
v 26 0 22
v 26 0 23
v 26 0 24
v 26 0 25
v 26 0 26
v 26 0 27
v 26 0 28
v 26 0 29
v 27 0 0
v 27 0 1
v 27 0 2
v 27 0 3
v 27 0 4
v 27 0 5
v 27 0 6
v 27 0 7
v 27 0 8
v 27 0 9
v 27 0 10
v 27 0 11
v 27 0 12
v 27 0 13
v 27 0 14
v 27 0 15
v 27 0 16
v 27 0 17
v 27 0 18
v 27 0 19
v 27 0 20
v 27 0 21
v 27 0 22
v 27 0 23
v 27 0 24
v 27 0 25
v 27 0 26
v 27 0 27
v 27 0 28
v 27 0 29
v 28 0 0
v 28 0 1
v 28 0 2
v 28 0 3
v 28 0 4
v 28 0 5
v 28 0 6
v 28 0 7
v 28 0 8
v 28 0 9
v 28 0 10
v 28 0 11
v 28 0 12
v 28 0 13
v 28 0 14
v 28 0 15
v 28 0 16
v 28 0 17
v 28 0 18
v 28 0 19
v 28 0 20
v 28 0 21
v 28 0 22
v 28 0 23
v 28 0 24
v 28 0 25
v 28 0 26
v 28 0 27
v 28 0 28
v 28 0 29
v 29 0 0
v 29 0 1
v 29 0 2
v 29 0 3
v 29 0 4
v 29 0 5
v 29 0 6
v 29 0 7
v 29 0 8
v 29 0 9
v 29 0 10
v 29 0 11
v 29 0 12
v 29 0 13
v 29 0 14
v 29 0 15
v 29 0 16
v 29 0 17
v 29 0 18
v 29 0 19
v 29 0 20
v 29 0 21
v 29 0 22
v 29 0 23
v 29 0 24
v 29 0 25
v 29 0 26
v 29 0 27
v 29 0 28
v 29 0 29
f 31 1 2
f 31 2 32
f 32 2 3
f 32 3 33
f 33 3 4
f 33 4 34
f 34 4 5
f 34 5 35
f 35 5 6
f 35 6 36
f 36 6 7
f 36 7 37
f 37 7 8
f 37 8 38
f 38 8 9
f 38 9 39
f 39 9 10
f 39 10 40
f 40 10 11
f 40 11 41
f 41 11 12
f 41 12 42
f 42 12 13
f 42 13 43
f 43 13 14
f 43 14 44
f 44 14 15
f 44 15 45
f 45 15 16
f 45 16 46
f 46 16 17
f 46 17 47
f 47 17 18
f 47 18 48
f 48 18 19
f 48 19 49
f 49 19 20
f 49 20 50
f 50 20 21
f 50 21 51
f 51 21 22
f 51 22 52
f 52 22 23
f 52 23 53
f 53 23 24
f 53 24 54
f 54 24 25
f 54 25 55
f 55 25 26
f 55 26 56
f 56 26 27
f 56 27 57
f 57 27 28
f 57 28 58
f 58 28 29
f 58 29 59
f 59 29 30
f 59 30 60
f 61 31 32
f 61 32 62
f 62 32 33
f 62 33 63
f 63 33 34
f 63 34 64
f 64 34 35
f 64 35 65
f 65 35 36
f 65 36 66
f 66 36 37
f 66 37 67
f 67 37 38
f 67 38 68
f 68 38 39
f 68 39 69
f 69 39 40
f 69 40 70
f 70 40 41
f 70 41 71
f 71 41 42
f 71 42 72
f 72 42 43
f 72 43 73
f 73 43 44
f 73 44 74
f 74 44 45
f 74 45 75
f 75 45 46
f 75 46 76
f 76 46 47
f 76 47 77
f 77 47 48
f 77 48 78
f 78 48 49
f 78 49 79
f 79 49 50
f 79 50 80
f 80 50 51
f 80 51 81
f 81 51 52
f 81 52 82
f 82 52 53
f 82 53 83
f 83 53 54
f 83 54 84
f 84 54 55
f 84 55 85
f 85 55 56
f 85 56 86
f 86 56 57
f 86 57 87
f 87 57 58
f 87 58 88
f 88 58 59
f 88 59 89
f 89 59 60
f 89 60 90
f 91 61 62
f 91 62 92
f 92 62 63
f 92 63 93
f 93 63 64
f 93 64 94
f 94 64 65
f 94 65 95
f 95 65 66
f 95 66 96
f 96 66 67
f 96 67 97
f 97 67 68
f 97 68 98
f 98 68 69
f 98 69 99
f 99 69 70
f 99 70 100
f 100 70 71
f 100 71 101
f 101 71 72
f 101 72 102
f 102 72 73
f 102 73 103
f 103 73 74
f 103 74 104
f 104 74 75
f 104 75 105
f 105 75 76
f 105 76 106
f 106 76 77
f 106 77 107
f 107 77 78
f 107 78 108
f 108 78 79
f 108 79 109
f 109 79 80
f 109 80 110
f 110 80 81
f 110 81 111
f 111 81 82
f 111 82 112
f 112 82 83
f 112 83 113
f 113 83 84
f 113 84 114
f 114 84 85
f 114 85 115
f 115 85 86
f 115 86 116
f 116 86 87
f 116 87 117
f 117 87 88
f 117 88 118
f 118 88 89
f 118 89 119
f 119 89 90
f 119 90 120
f 121 91 92
f 121 92 122
f 122 92 93
f 122 93 123
f 123 93 94
f 123 94 124
f 124 94 95
f 124 95 125
f 125 95 96
f 125 96 126
f 126 96 97
f 126 97 127
f 127 97 98
f 127 98 128
f 128 98 99
f 128 99 129
f 129 99 100
f 129 100 130
f 130 100 101
f 130 101 131
f 131 101 102
f 131 102 132
f 132 102 103
f 132 103 133
f 133 103 104
f 133 104 134
f 134 104 105
f 134 105 135
f 135 105 106
f 135 106 136
f 136 106 107
f 136 107 137
f 137 107 108
f 137 108 138
f 138 108 109
f 138 109 139
f 139 109 110
f 139 110 140
f 140 110 111
f 140 111 141
f 141 111 112
f 141 112 142
f 142 112 113
f 142 113 143
f 143 113 114
f 143 114 144
f 144 114 115
f 144 115 145
f 145 115 116
f 145 116 146
f 146 116 117
f 146 117 147
f 147 117 118
f 147 118 148
f 148 118 119
f 148 119 149
f 149 119 120
f 149 120 150
f 151 121 122
f 151 122 152
f 152 122 123
f 152 123 153
f 153 123 124
f 153 124 154
f 154 124 125
f 154 125 155
f 155 125 126
f 155 126 156
f 156 126 127
f 156 127 157
f 157 127 128
f 157 128 158
f 158 128 129
f 158 129 159
f 159 129 130
f 159 130 160
f 160 130 131
f 160 131 161
f 161 131 132
f 161 132 162
f 162 132 133
f 162 133 163
f 163 133 134
f 163 134 164
f 164 134 135
f 164 135 165
f 165 135 136
f 165 136 166
f 166 136 137
f 166 137 167
f 167 137 138
f 167 138 168
f 168 138 139
f 168 139 169
f 169 139 140
f 169 140 170
f 170 140 141
f 170 141 171
f 171 141 142
f 171 142 172
f 172 142 143
f 172 143 173
f 173 143 144
f 173 144 174
f 174 144 145
f 174 145 175
f 175 145 146
f 175 146 176
f 176 146 147
f 176 147 177
f 177 147 148
f 177 148 178
f 178 148 149
f 178 149 179
f 179 149 150
f 179 150 180
f 181 151 152
f 181 152 182
f 182 152 153
f 182 153 183
f 183 153 154
f 183 154 184
f 184 154 155
f 184 155 185
f 185 155 156
f 185 156 186
f 186 156 157
f 186 157 187
f 187 157 158
f 187 158 188
f 188 158 159
f 188 159 189
f 189 159 160
f 189 160 190
f 190 160 161
f 190 161 191
f 191 161 162
f 191 162 192
f 192 162 163
f 192 163 193
f 193 163 164
f 193 164 194
f 194 164 165
f 194 165 195
f 195 165 166
f 195 166 196
f 196 166 167
f 196 167 197
f 197 167 168
f 197 168 198
f 198 168 169
f 198 169 199
f 199 169 170
f 199 170 200
f 200 170 171
f 200 171 201
f 201 171 172
f 201 172 202
f 202 172 173
f 202 173 203
f 203 173 174
f 203 174 204
f 204 174 175
f 204 175 205
f 205 175 176
f 205 176 206
f 206 176 177
f 206 177 207
f 207 177 178
f 207 178 208
f 208 178 179
f 208 179 209
f 209 179 180
f 209 180 210
f 211 181 182
f 211 182 212
f 212 182 183
f 212 183 213
f 213 183 184
f 213 184 214
f 214 184 185
f 214 185 215
f 215 185 186
f 215 186 216
f 216 186 187
f 216 187 217
f 217 187 188
f 217 188 218
f 218 188 189
f 218 189 219
f 219 189 190
f 219 190 220
f 220 190 191
f 220 191 221
f 221 191 192
f 221 192 222
f 222 192 193
f 222 193 223
f 223 193 194
f 223 194 224
f 224 194 195
f 224 195 225
f 225 195 196
f 225 196 226
f 226 196 197
f 226 197 227
f 227 197 198
f 227 198 228
f 228 198 199
f 228 199 229
f 229 199 200
f 229 200 230
f 230 200 201
f 230 201 231
f 231 201 202
f 231 202 232
f 232 202 203
f 232 203 233
f 233 203 204
f 233 204 234
f 234 204 205
f 234 205 235
f 235 205 206
f 235 206 236
f 236 206 207
f 236 207 237
f 237 207 208
f 237 208 238
f 238 208 209
f 238 209 239
f 239 209 210
f 239 210 240
f 241 211 212
f 241 212 242
f 242 212 213
f 242 213 243
f 243 213 214
f 243 214 244
f 244 214 215
f 244 215 245
f 245 215 216
f 245 216 246
f 246 216 217
f 246 217 247
f 247 217 218
f 247 218 248
f 248 218 219
f 248 219 249
f 249 219 220
f 249 220 250
f 250 220 221
f 250 221 251
f 251 221 222
f 251 222 252
f 252 222 223
f 252 223 253
f 253 223 224
f 253 224 254
f 254 224 225
f 254 225 255
f 255 225 226
f 255 226 256
f 256 226 227
f 256 227 257
f 257 227 228
f 257 228 258
f 258 228 229
f 258 229 259
f 259 229 230
f 259 230 260
f 260 230 231
f 260 231 261
f 261 231 232
f 261 232 262
f 262 232 233
f 262 233 263
f 263 233 234
f 263 234 264
f 264 234 235
f 264 235 265
f 265 235 236
f 265 236 266
f 266 236 237
f 266 237 267
f 267 237 238
f 267 238 268
f 268 238 239
f 268 239 269
f 269 239 240
f 269 240 270
f 271 241 242
f 271 242 272
f 272 242 243
f 272 243 273
f 273 243 244
f 273 244 274
f 274 244 245
f 274 245 275
f 275 245 246
f 275 246 276
f 276 246 247
f 276 247 277
f 277 247 248
f 277 248 278
f 278 248 249
f 278 249 279
f 279 249 250
f 279 250 280
f 280 250 251
f 280 251 281
f 281 251 252
f 281 252 282
f 282 252 253
f 282 253 283
f 283 253 254
f 283 254 284
f 284 254 255
f 284 255 285
f 285 255 256
f 285 256 286
f 286 256 257
f 286 257 287
f 287 257 258
f 287 258 288
f 288 258 259
f 288 259 289
f 289 259 260
f 289 260 290
f 290 260 261
f 290 261 291
f 291 261 262
f 291 262 292
f 292 262 263
f 292 263 293
f 293 263 264
f 293 264 294
f 294 264 265
f 294 265 295
f 295 265 266
f 295 266 296
f 296 266 267
f 296 267 297
f 297 267 268
f 297 268 298
f 298 268 269
f 298 269 299
f 299 269 270
f 299 270 300
f 301 271 272
f 301 272 302
f 302 272 273
f 302 273 303
f 303 273 274
f 303 274 304
f 304 274 275
f 304 275 305
f 305 275 276
f 305 276 306
f 306 276 277
f 306 277 307
f 307 277 278
f 307 278 308
f 308 278 279
f 308 279 309
f 309 279 280
f 309 280 310
f 310 280 281
f 310 281 311
f 311 281 282
f 311 282 312
f 312 282 283
f 312 283 313
f 313 283 284
f 313 284 314
f 314 284 285
f 314 285 315
f 315 285 286
f 315 286 316
f 316 286 287
f 316 287 317
f 317 287 288
f 317 288 318
f 318 288 289
f 318 289 319
f 319 289 290
f 319 290 320
f 320 290 291
f 320 291 321
f 321 291 292
f 321 292 322
f 322 292 293
f 322 293 323
f 323 293 294
f 323 294 324
f 324 294 295
f 324 295 325
f 325 295 296
f 325 296 326
f 326 296 297
f 326 297 327
f 327 297 298
f 327 298 328
f 328 298 299
f 328 299 329
f 329 299 300
f 329 300 330
f 331 301 302
f 331 302 332
f 332 302 303
f 332 303 333
f 333 303 304
f 333 304 334
f 334 304 305
f 334 305 335
f 335 305 306
f 335 306 336
f 336 306 307
f 336 307 337
f 337 307 308
f 337 308 338
f 338 308 309
f 338 309 339
f 339 309 310
f 339 310 340
f 340 310 311
f 340 311 341
f 341 311 312
f 341 312 342
f 342 312 313
f 342 313 343
f 343 313 314
f 343 314 344
f 344 314 315
f 344 315 345
f 345 315 316
f 345 316 346
f 346 316 317
f 346 317 347
f 347 317 318
f 347 318 348
f 348 318 319
f 348 319 349
f 349 319 320
f 349 320 350
f 350 320 321
f 350 321 351
f 351 321 322
f 351 322 352
f 352 322 323
f 352 323 353
f 353 323 324
f 353 324 354
f 354 324 325
f 354 325 355
f 355 325 326
f 355 326 356
f 356 326 327
f 356 327 357
f 357 327 328
f 357 328 358
f 358 328 329
f 358 329 359
f 359 329 330
f 359 330 360
f 361 331 332
f 361 332 362
f 362 332 333
f 362 333 363
f 363 333 334
f 363 334 364
f 364 334 335
f 364 335 365
f 365 335 336
f 365 336 366
f 366 336 337
f 366 337 367
f 367 337 338
f 367 338 368
f 368 338 339
f 368 339 369
f 369 339 340
f 369 340 370
f 370 340 341
f 370 341 371
f 371 341 342
f 371 342 372
f 372 342 343
f 372 343 373
f 373 343 344
f 373 344 374
f 374 344 345
f 374 345 375
f 375 345 346
f 375 346 376
f 376 346 347
f 376 347 377
f 377 347 348
f 377 348 378
f 378 348 349
f 378 349 379
f 379 349 350
f 379 350 380
f 380 350 351
f 380 351 381
f 381 351 352
f 381 352 382
f 382 352 353
f 382 353 383
f 383 353 354
f 383 354 384
f 384 354 355
f 384 355 385
f 385 355 356
f 385 356 386
f 386 356 357
f 386 357 387
f 387 357 358
f 387 358 388
f 388 358 359
f 388 359 389
f 389 359 360
f 389 360 390
f 391 361 362
f 391 362 392
f 392 362 363
f 392 363 393
f 393 363 364
f 393 364 394
f 394 364 365
f 394 365 395
f 395 365 366
f 395 366 396
f 396 366 367
f 396 367 397
f 397 367 368
f 397 368 398
f 398 368 369
f 398 369 399
f 399 369 370
f 399 370 400
f 400 370 371
f 400 371 401
f 401 371 372
f 401 372 402
f 402 372 373
f 402 373 403
f 403 373 374
f 403 374 404
f 404 374 375
f 404 375 405
f 405 375 376
f 405 376 406
f 406 376 377
f 406 377 407
f 407 377 378
f 407 378 408
f 408 378 379
f 408 379 409
f 409 379 380
f 409 380 410
f 410 380 381
f 410 381 411
f 411 381 382
f 411 382 412
f 412 382 383
f 412 383 413
f 413 383 384
f 413 384 414
f 414 384 385
f 414 385 415
f 415 385 386
f 415 386 416
f 416 386 387
f 416 387 417
f 417 387 388
f 417 388 418
f 418 388 389
f 418 389 419
f 419 389 390
f 419 390 420
f 421 391 392
f 421 392 422
f 422 392 393
f 422 393 423
f 423 393 394
f 423 394 424
f 424 394 395
f 424 395 425
f 425 395 396
f 425 396 426
f 426 396 397
f 426 397 427
f 427 397 398
f 427 398 428
f 428 398 399
f 428 399 429
f 429 399 400
f 429 400 430
f 430 400 401
f 430 401 431
f 431 401 402
f 431 402 432
f 432 402 403
f 432 403 433
f 433 403 404
f 433 404 434
f 434 404 405
f 434 405 435
f 435 405 406
f 435 406 436
f 436 406 407
f 436 407 437
f 437 407 408
f 437 408 438
f 438 408 409
f 438 409 439
f 439 409 410
f 439 410 440
f 440 410 411
f 440 411 441
f 441 411 412
f 441 412 442
f 442 412 413
f 442 413 443
f 443 413 414
f 443 414 444
f 444 414 415
f 444 415 445
f 445 415 416
f 445 416 446
f 446 416 417
f 446 417 447
f 447 417 418
f 447 418 448
f 448 418 419
f 448 419 449
f 449 419 420
f 449 420 450
f 451 421 422
f 451 422 452
f 452 422 423
f 452 423 453
f 453 423 424
f 453 424 454
f 454 424 425
f 454 425 455
f 455 425 426
f 455 426 456
f 456 426 427
f 456 427 457
f 457 427 428
f 457 428 458
f 458 428 429
f 458 429 459
f 459 429 430
f 459 430 460
f 460 430 431
f 460 431 461
f 461 431 432
f 461 432 462
f 462 432 433
f 462 433 463
f 463 433 434
f 463 434 464
f 464 434 435
f 464 435 465
f 465 435 436
f 465 436 466
f 466 436 437
f 466 437 467
f 467 437 438
f 467 438 468
f 468 438 439
f 468 439 469
f 469 439 440
f 469 440 470
f 470 440 441
f 470 441 471
f 471 441 442
f 471 442 472
f 472 442 443
f 472 443 473
f 473 443 444
f 473 444 474
f 474 444 445
f 474 445 475
f 475 445 446
f 475 446 476
f 476 446 447
f 476 447 477
f 477 447 448
f 477 448 478
f 478 448 449
f 478 449 479
f 479 449 450
f 479 450 480
f 481 451 452
f 481 452 482
f 482 452 453
f 482 453 483
f 483 453 454
f 483 454 484
f 484 454 455
f 484 455 485
f 485 455 456
f 485 456 486
f 486 456 457
f 486 457 487
f 487 457 458
f 487 458 488
f 488 458 459
f 488 459 489
f 489 459 460
f 489 460 490
f 490 460 461
f 490 461 491
f 491 461 462
f 491 462 492
f 492 462 463
f 492 463 493
f 493 463 464
f 493 464 494
f 494 464 465
f 494 465 495
f 495 465 466
f 495 466 496
f 496 466 467
f 496 467 497
f 497 467 468
f 497 468 498
f 498 468 469
f 498 469 499
f 499 469 470
f 499 470 500
f 500 470 471
f 500 471 501
f 501 471 472
f 501 472 502
f 502 472 473
f 502 473 503
f 503 473 474
f 503 474 504
f 504 474 475
f 504 475 505
f 505 475 476
f 505 476 506
f 506 476 477
f 506 477 507
f 507 477 478
f 507 478 508
f 508 478 479
f 508 479 509
f 509 479 480
f 509 480 510
f 511 481 482
f 511 482 512
f 512 482 483
f 512 483 513
f 513 483 484
f 513 484 514
f 514 484 485
f 514 485 515
f 515 485 486
f 515 486 516
f 516 486 487
f 516 487 517
f 517 487 488
f 517 488 518
f 518 488 489
f 518 489 519
f 519 489 490
f 519 490 520
f 520 490 491
f 520 491 521
f 521 491 492
f 521 492 522
f 522 492 493
f 522 493 523
f 523 493 494
f 523 494 524
f 524 494 495
f 524 495 525
f 525 495 496
f 525 496 526
f 526 496 497
f 526 497 527
f 527 497 498
f 527 498 528
f 528 498 499
f 528 499 529
f 529 499 500
f 529 500 530
f 530 500 501
f 530 501 531
f 531 501 502
f 531 502 532
f 532 502 503
f 532 503 533
f 533 503 504
f 533 504 534
f 534 504 505
f 534 505 535
f 535 505 506
f 535 506 536
f 536 506 507
f 536 507 537
f 537 507 508
f 537 508 538
f 538 508 509
f 538 509 539
f 539 509 510
f 539 510 540
f 541 511 512
f 541 512 542
f 542 512 513
f 542 513 543
f 543 513 514
f 543 514 544
f 544 514 515
f 544 515 545
f 545 515 516
f 545 516 546
f 546 516 517
f 546 517 547
f 547 517 518
f 547 518 548
f 548 518 519
f 548 519 549
f 549 519 520
f 549 520 550
f 550 520 521
f 550 521 551
f 551 521 522
f 551 522 552
f 552 522 523
f 552 523 553
f 553 523 524
f 553 524 554
f 554 524 525
f 554 525 555
f 555 525 526
f 555 526 556
f 556 526 527
f 556 527 557
f 557 527 528
f 557 528 558
f 558 528 529
f 558 529 559
f 559 529 530
f 559 530 560
f 560 530 531
f 560 531 561
f 561 531 532
f 561 532 562
f 562 532 533
f 562 533 563
f 563 533 534
f 563 534 564
f 564 534 535
f 564 535 565
f 565 535 536
f 565 536 566
f 566 536 537
f 566 537 567
f 567 537 538
f 567 538 568
f 568 538 539
f 568 539 569
f 569 539 540
f 569 540 570
f 571 541 542
f 571 542 572
f 572 542 543
f 572 543 573
f 573 543 544
f 573 544 574
f 574 544 545
f 574 545 575
f 575 545 546
f 575 546 576
f 576 546 547
f 576 547 577
f 577 547 548
f 577 548 578
f 578 548 549
f 578 549 579
f 579 549 550
f 579 550 580
f 580 550 551
f 580 551 581
f 581 551 552
f 581 552 582
f 582 552 553
f 582 553 583
f 583 553 554
f 583 554 584
f 584 554 555
f 584 555 585
f 585 555 556
f 585 556 586
f 586 556 557
f 586 557 587
f 587 557 558
f 587 558 588
f 588 558 559
f 588 559 589
f 589 559 560
f 589 560 590
f 590 560 561
f 590 561 591
f 591 561 562
f 591 562 592
f 592 562 563
f 592 563 593
f 593 563 564
f 593 564 594
f 594 564 565
f 594 565 595
f 595 565 566
f 595 566 596
f 596 566 567
f 596 567 597
f 597 567 568
f 597 568 598
f 598 568 569
f 598 569 599
f 599 569 570
f 599 570 600
f 601 571 572
f 601 572 602
f 602 572 573
f 602 573 603
f 603 573 574
f 603 574 604
f 604 574 575
f 604 575 605
f 605 575 576
f 605 576 606
f 606 576 577
f 606 577 607
f 607 577 578
f 607 578 608
f 608 578 579
f 608 579 609
f 609 579 580
f 609 580 610
f 610 580 581
f 610 581 611
f 611 581 582
f 611 582 612
f 612 582 583
f 612 583 613
f 613 583 584
f 613 584 614
f 614 584 585
f 614 585 615
f 615 585 586
f 615 586 616
f 616 586 587
f 616 587 617
f 617 587 588
f 617 588 618
f 618 588 589
f 618 589 619
f 619 589 590
f 619 590 620
f 620 590 591
f 620 591 621
f 621 591 592
f 621 592 622
f 622 592 593
f 622 593 623
f 623 593 594
f 623 594 624
f 624 594 595
f 624 595 625
f 625 595 596
f 625 596 626
f 626 596 597
f 626 597 627
f 627 597 598
f 627 598 628
f 628 598 599
f 628 599 629
f 629 599 600
f 629 600 630
f 631 601 602
f 631 602 632
f 632 602 603
f 632 603 633
f 633 603 604
f 633 604 634
f 634 604 605
f 634 605 635
f 635 605 606
f 635 606 636
f 636 606 607
f 636 607 637
f 637 607 608
f 637 608 638
f 638 608 609
f 638 609 639
f 639 609 610
f 639 610 640
f 640 610 611
f 640 611 641
f 641 611 612
f 641 612 642
f 642 612 613
f 642 613 643
f 643 613 614
f 643 614 644
f 644 614 615
f 644 615 645
f 645 615 616
f 645 616 646
f 646 616 617
f 646 617 647
f 647 617 618
f 647 618 648
f 648 618 619
f 648 619 649
f 649 619 620
f 649 620 650
f 650 620 621
f 650 621 651
f 651 621 622
f 651 622 652
f 652 622 623
f 652 623 653
f 653 623 624
f 653 624 654
f 654 624 625
f 654 625 655
f 655 625 626
f 655 626 656
f 656 626 627
f 656 627 657
f 657 627 628
f 657 628 658
f 658 628 629
f 658 629 659
f 659 629 630
f 659 630 660
f 661 631 632
f 661 632 662
f 662 632 633
f 662 633 663
f 663 633 634
f 663 634 664
f 664 634 635
f 664 635 665
f 665 635 636
f 665 636 666
f 666 636 637
f 666 637 667
f 667 637 638
f 667 638 668
f 668 638 639
f 668 639 669
f 669 639 640
f 669 640 670
f 670 640 641
f 670 641 671
f 671 641 642
f 671 642 672
f 672 642 643
f 672 643 673
f 673 643 644
f 673 644 674
f 674 644 645
f 674 645 675
f 675 645 646
f 675 646 676
f 676 646 647
f 676 647 677
f 677 647 648
f 677 648 678
f 678 648 649
f 678 649 679
f 679 649 650
f 679 650 680
f 680 650 651
f 680 651 681
f 681 651 652
f 681 652 682
f 682 652 653
f 682 653 683
f 683 653 654
f 683 654 684
f 684 654 655
f 684 655 685
f 685 655 656
f 685 656 686
f 686 656 657
f 686 657 687
f 687 657 658
f 687 658 688
f 688 658 659
f 688 659 689
f 689 659 660
f 689 660 690
f 691 661 662
f 691 662 692
f 692 662 663
f 692 663 693
f 693 663 664
f 693 664 694
f 694 664 665
f 694 665 695
f 695 665 666
f 695 666 696
f 696 666 667
f 696 667 697
f 697 667 668
f 697 668 698
f 698 668 669
f 698 669 699
f 699 669 670
f 699 670 700
f 700 670 671
f 700 671 701
f 701 671 672
f 701 672 702
f 702 672 673
f 702 673 703
f 703 673 674
f 703 674 704
f 704 674 675
f 704 675 705
f 705 675 676
f 705 676 706
f 706 676 677
f 706 677 707
f 707 677 678
f 707 678 708
f 708 678 679
f 708 679 709
f 709 679 680
f 709 680 710
f 710 680 681
f 710 681 711
f 711 681 682
f 711 682 712
f 712 682 683
f 712 683 713
f 713 683 684
f 713 684 714
f 714 684 685
f 714 685 715
f 715 685 686
f 715 686 716
f 716 686 687
f 716 687 717
f 717 687 688
f 717 688 718
f 718 688 689
f 718 689 719
f 719 689 690
f 719 690 720
f 721 691 692
f 721 692 722
f 722 692 693
f 722 693 723
f 723 693 694
f 723 694 724
f 724 694 695
f 724 695 725
f 725 695 696
f 725 696 726
f 726 696 697
f 726 697 727
f 727 697 698
f 727 698 728
f 728 698 699
f 728 699 729
f 729 699 700
f 729 700 730
f 730 700 701
f 730 701 731
f 731 701 702
f 731 702 732
f 732 702 703
f 732 703 733
f 733 703 704
f 733 704 734
f 734 704 705
f 734 705 735
f 735 705 706
f 735 706 736
f 736 706 707
f 736 707 737
f 737 707 708
f 737 708 738
f 738 708 709
f 738 709 739
f 739 709 710
f 739 710 740
f 740 710 711
f 740 711 741
f 741 711 712
f 741 712 742
f 742 712 713
f 742 713 743
f 743 713 714
f 743 714 744
f 744 714 715
f 744 715 745
f 745 715 716
f 745 716 746
f 746 716 717
f 746 717 747
f 747 717 718
f 747 718 748
f 748 718 719
f 748 719 749
f 749 719 720
f 749 720 750
f 751 721 722
f 751 722 752
f 752 722 723
f 752 723 753
f 753 723 724
f 753 724 754
f 754 724 725
f 754 725 755
f 755 725 726
f 755 726 756
f 756 726 727
f 756 727 757
f 757 727 728
f 757 728 758
f 758 728 729
f 758 729 759
f 759 729 730
f 759 730 760
f 760 730 731
f 760 731 761
f 761 731 732
f 761 732 762
f 762 732 733
f 762 733 763
f 763 733 734
f 763 734 764
f 764 734 735
f 764 735 765
f 765 735 736
f 765 736 766
f 766 736 737
f 766 737 767
f 767 737 738
f 767 738 768
f 768 738 739
f 768 739 769
f 769 739 740
f 769 740 770
f 770 740 741
f 770 741 771
f 771 741 742
f 771 742 772
f 772 742 743
f 772 743 773
f 773 743 744
f 773 744 774
f 774 744 745
f 774 745 775
f 775 745 746
f 775 746 776
f 776 746 747
f 776 747 777
f 777 747 748
f 777 748 778
f 778 748 749
f 778 749 779
f 779 749 750
f 779 750 780
f 781 751 752
f 781 752 782
f 782 752 753
f 782 753 783
f 783 753 754
f 783 754 784
f 784 754 755
f 784 755 785
f 785 755 756
f 785 756 786
f 786 756 757
f 786 757 787
f 787 757 758
f 787 758 788
f 788 758 759
f 788 759 789
f 789 759 760
f 789 760 790
f 790 760 761
f 790 761 791
f 791 761 762
f 791 762 792
f 792 762 763
f 792 763 793
f 793 763 764
f 793 764 794
f 794 764 765
f 794 765 795
f 795 765 766
f 795 766 796
f 796 766 767
f 796 767 797
f 797 767 768
f 797 768 798
f 798 768 769
f 798 769 799
f 799 769 770
f 799 770 800
f 800 770 771
f 800 771 801
f 801 771 772
f 801 772 802
f 802 772 773
f 802 773 803
f 803 773 774
f 803 774 804
f 804 774 775
f 804 775 805
f 805 775 776
f 805 776 806
f 806 776 777
f 806 777 807
f 807 777 778
f 807 778 808
f 808 778 779
f 808 779 809
f 809 779 780
f 809 780 810
f 811 781 782
f 811 782 812
f 812 782 783
f 812 783 813
f 813 783 784
f 813 784 814
f 814 784 785
f 814 785 815
f 815 785 786
f 815 786 816
f 816 786 787
f 816 787 817
f 817 787 788
f 817 788 818
f 818 788 789
f 818 789 819
f 819 789 790
f 819 790 820
f 820 790 791
f 820 791 821
f 821 791 792
f 821 792 822
f 822 792 793
f 822 793 823
f 823 793 794
f 823 794 824
f 824 794 795
f 824 795 825
f 825 795 796
f 825 796 826
f 826 796 797
f 826 797 827
f 827 797 798
f 827 798 828
f 828 798 799
f 828 799 829
f 829 799 800
f 829 800 830
f 830 800 801
f 830 801 831
f 831 801 802
f 831 802 832
f 832 802 803
f 832 803 833
f 833 803 804
f 833 804 834
f 834 804 805
f 834 805 835
f 835 805 806
f 835 806 836
f 836 806 807
f 836 807 837
f 837 807 808
f 837 808 838
f 838 808 809
f 838 809 839
f 839 809 810
f 839 810 840
f 841 811 812
f 841 812 842
f 842 812 813
f 842 813 843
f 843 813 814
f 843 814 844
f 844 814 815
f 844 815 845
f 845 815 816
f 845 816 846
f 846 816 817
f 846 817 847
f 847 817 818
f 847 818 848
f 848 818 819
f 848 819 849
f 849 819 820
f 849 820 850
f 850 820 821
f 850 821 851
f 851 821 822
f 851 822 852
f 852 822 823
f 852 823 853
f 853 823 824
f 853 824 854
f 854 824 825
f 854 825 855
f 855 825 826
f 855 826 856
f 856 826 827
f 856 827 857
f 857 827 828
f 857 828 858
f 858 828 829
f 858 829 859
f 859 829 830
f 859 830 860
f 860 830 831
f 860 831 861
f 861 831 832
f 861 832 862
f 862 832 833
f 862 833 863
f 863 833 834
f 863 834 864
f 864 834 835
f 864 835 865
f 865 835 836
f 865 836 866
f 866 836 837
f 866 837 867
f 867 837 838
f 867 838 868
f 868 838 839
f 868 839 869
f 869 839 840
f 869 840 870
f 871 841 842
f 871 842 872
f 872 842 843
f 872 843 873
f 873 843 844
f 873 844 874
f 874 844 845
f 874 845 875
f 875 845 846
f 875 846 876
f 876 846 847
f 876 847 877
f 877 847 848
f 877 848 878
f 878 848 849
f 878 849 879
f 879 849 850
f 879 850 880
f 880 850 851
f 880 851 881
f 881 851 852
f 881 852 882
f 882 852 853
f 882 853 883
f 883 853 854
f 883 854 884
f 884 854 855
f 884 855 885
f 885 855 856
f 885 856 886
f 886 856 857
f 886 857 887
f 887 857 858
f 887 858 888
f 888 858 859
f 888 859 889
f 889 859 860
f 889 860 890
f 890 860 861
f 890 861 891
f 891 861 862
f 891 862 892
f 892 862 863
f 892 863 893
f 893 863 864
f 893 864 894
f 894 864 865
f 894 865 895
f 895 865 866
f 895 866 896
f 896 866 867
f 896 867 897
f 897 867 868
f 897 868 898
f 898 868 869
f 898 869 899
f 899 869 870
f 899 870 900
